<svg version="1.1" id="_x32_" xmlns="http://www.w3.org/2000/svg" x="0px" y="0px"
	 viewBox="0 0 512 512" xml:space="preserve">
<g>
	<path d="M150.078,96.435c26.636,0,48.214-21.596,48.214-48.213C198.292,21.578,176.714,0,150.078,0
		c-26.643,0-48.222,21.578-48.222,48.222C101.856,74.839,123.435,96.435,150.078,96.435z"/>
	<path d="M390.782,224.327c18.442,0,33.378-14.944,33.378-33.368c0-18.451-14.936-33.386-33.378-33.386
		c-18.441,0-33.376,14.935-33.376,33.386C357.406,209.383,372.341,224.327,390.782,224.327z"/>
	<path d="M419.706,240.136H390.44h-20.217c-11.285,0-22.028,4.858-29.483,13.34l-24.508,27.888
		c-1.505,1.721-3.696,2.695-5.984,2.668l-18.956-0.226c-3.037-0.036-5.777-1.82-7.048-4.587l-55.73-121.754
		c-10.645-23.273-33.882-38.19-59.471-38.19h-19.46H107.31c-23.364,0-48.781,25.418-48.781,48.79v162.062
		c0,11.681,9.464,21.155,21.145,21.155c5.751,0,0,0,14.764,0l8.04,138.212c0,12.43,10.086,22.507,22.516,22.507
		c5.245,0,14.917,0,24.588,0c9.672,0,19.343,0,24.589,0c12.43,0,22.515-10.077,22.515-22.507l8.04-138.212l3.534-129.974
		l42.38,92.604c1.28,2.785,4.066,4.579,7.139,4.579h72.594c2.254,0,4.408-0.974,5.895-2.668l15.999-18.208v103.132l5.561,95.678
		c0,8.598,6.986,15.575,15.594,15.575c3.624,0,10.32,0,17.017,0s13.394,0,17.018,0c8.608,0,15.593-6.977,15.593-15.575l5.562-95.678
		c10.221,0,6.238,0,10.221,0c8.085,0,14.638-6.562,14.638-14.648V273.918C453.471,257.73,435.877,240.136,419.706,240.136z"/>
</g>
</svg>
