<svg xmlns="http://www.w3.org/2000/svg" viewBox="0 0 56.69 43.21">
	<path d="M7.47 33.47a4.49 4.49 0 1 1 9 0 4.26 4.26 0 0 1-.11 1l5.36.47a2 2 0 1 1 3.9-.61 2 2 0 0 1-.24.93L49 37.28 51.88 31l-2.41-1.11L47 35.36l-2.16-1L47 29.54c-.47.16-1 .33-1.74.52l-.92-2.21a21.37 21.37 0 0 0 6.34-2.42l-3.78-1.74.93-2 4.79 2.21a17.94 17.94 0 0 0 1.58-1.79l2.17 1.2A16.36 16.36 0 0 1 55 25l1.74.8V8L45.55 7a4.48 4.48 0 0 1-8.93-.51 2.53 2.53 0 0 1 0-.28l-10.43-.93c-.09 1.54-.39 4.22-.39 4.22s.53-.26.71-.29c1.13-.07 2.25 2 2.19 2.67l-3 1.19c-.08 1.43-.15 4-.36 6-.09.38-.16.59-.81.6a21.58 21.58 0 0 1-3.95-.53v-.06l.42-4.56h-.07a34.26 34.26 0 0 1-4.43 1.87l-2.07-1.25a1 1 0 0 1-.36.12c-1.3.26-3 .73-4.66 1.24a78.61 78.61 0 0 0-3.33 7.9c-.49.4-4.52-.05-4.82-1a47.2 47.2 0 0 1 2.1-4.93l-.68.21c-1 .32-2.94-1.61-2.45-2a36.13 36.13 0 0 1 5-2C6.8 12 8.08 9.86 8.08 9.86a37.08 37.08 0 0 1-5.37 1.59 12.82 12.82 0 0 1 .68 1.6c.07.28.15.58-.35.67a23.14 23.14 0 0 1-3 0V33l7.47.66ZM43.23 26l-2.15-1a21.76 21.76 0 0 0 .69 5.31l-2 1a21.42 21.42 0 0 1-.35-2.73l-1.7 3.68-1.91-.88 1.67-3.63A18.33 18.33 0 0 1 35 29.46l-.47-2.14a20.15 20.15 0 0 0 4.61-3.14v-.07l-1.64-.75.86-1.86 1.59.73.66-1.43 2 .91-.65 1.43 2.15 1Zm-14.71-3.66a34.4 34.4 0 0 0 2.24-4.27l1.79-3.87 5.26 2.42.69-1.49 2.33 1.08-.69 1.49 5.72 2.63-.93 2-11.15-5.11-1.08 2.37a34.43 34.43 0 0 1-2.59 4.79 19.11 19.11 0 0 0 3.79-2.69L32.32 21l.85-1.86 1.58.72.65-1.42 1.93.89-.66 1.42 1.31.61-.85 1.86-1.33-.61a17.05 17.05 0 0 0 .84 3l-1.69 1a13.94 13.94 0 0 1-.33-1.5l-2.16 4.68-1.88-.87 1.63-3.53c-.71.52-1.45 1-2.2 1.5l-.18-2.13a17.56 17.56 0 0 1-2.53 2.85l-1.71-2.09a11.9 11.9 0 0 0 2.93-3.18Zm-6.93 3a1 1 0 1 1-1 1 1 1 0 0 1 1-1.01Zm-1 5.5a1 1 0 1 1-.95 1 1 1 0 0 1 .99-1.01Zm-4.19-5.59a2 2 0 1 1-2 2 2 2 0 0 1 2.04-2.01Z"/>
	<path d="M10.66 5.1c1.5 0 2.46 2 2.58 2.73l-1.19.58 1.16 1.09c-.45.71-1.17 1.94-2 3.53.42-.08.77-.12 1 0s.6 0 1.12.13a.68.68 0 0 1 .23.18c.2-2.29 1.13-7.18 1.89-8.67a.82.82 0 0 1 .55-.28L0 3v5.25c2.88-.61 8.68-2.06 10.66-3.15ZM53.1 26.53a16.64 16.64 0 0 1-2.48 1.53l2.16 1 .77-1.67 2.15 1-.77 1.67 1.76.81v-2.68ZM55 36.42c.09 0 .19-.17.31-.42l1.31-2.83L54 32l-2.5 5.5 1.35.12.31-1.93 1.36.63a.71.71 0 0 0 .48.1ZM21 10.84c.13-1.35.49-4 .63-5.95l-1.8-.16c.09 0 .15.08.16.13a61.14 61.14 0 0 0-1.86 7.43A23.45 23.45 0 0 0 21 10.84ZM45.56 6.93a4.07 4.07 0 0 0 0-.61 4.48 4.48 0 0 0-9-.15Z"/>
	<circle cx="47.69" cy="1.83" r="1.83"/>
	<path d="M2.35 37.85a5.15 5.15 0 0 1-1.6.82l-.48-.56a5.19 5.19 0 0 0 1.53-.62l-1.19-.1.29-1.24 1.59.14v-.25l-1.8-.16.05-.55 4.14.35L4.77 37l-1.63-.14v.25l1.86.16v.93c0 .26-.09.42-.21.49a1.08 1.08 0 0 1-.57.06l-.63-.06-.16-.61.65.05a.44.44 0 0 0 .18 0 .21.21 0 0 0 .02-.13v-.2l-1.21-.1L3 38.91l-.7-.06ZM2 34.18l-.15.22 1.07.09v.45a4.6 4.6 0 0 0 .57-.73l.7.15a2.1 2.1 0 0 1-.15.22l1.32.12v.54l-.71-.06a2.52 2.52 0 0 1 .11.31l-.7.1a4.34 4.34 0 0 0-.16-.47h-.2c-.13.16-.26.29-.37.41l-.63-.31.1-.22h-.47l.12.31-.68.1c-.05-.17-.1-.32-.15-.47h-.16a4.07 4.07 0 0 1-.4.43L.45 35a4.88 4.88 0 0 0 .88-1Zm.41 2.87v-.25l-1-.08-.02.28Zm1.7-.62v-.25l-.93-.08v.25ZM9 35.75A18.83 18.83 0 0 0 6.92 39L6 38.91a25.37 25.37 0 0 1 2.13-3.24L6 35.49l.06-.7 3 .26ZM12.91 38.7l-.65-.06-.07.81-.77-.07.07-.81-2-.17.06-.65 2.08-2.5.88.08-.19 2.67H13Zm-1.36-.8.15-1.69-1.31 1.59ZM17.82 40.16l-.73-.06v-.3l-2.94-.25v.29l-.72-.06.38-4.43 4.38.38Zm-.63-1 .25-2.85-3-.26-.25 2.85Zm-.44-.48-2-.17.17-2 2 .17Zm-.61-.61.07-.83-.73-.06-.08.82ZM20.16 39.24c-.14.22-.3.43-.46.64l-.26-.57a4.93 4.93 0 0 1-.42 1l-.68-.41a3.46 3.46 0 0 0 .49-1.18 10.67 10.67 0 0 0 .2-1.41l.1-1.26 1.71.15v-.48l.76.07-.05.48 1.86.16-.06.65-3.61-.31-.07.77a9.8 9.8 0 0 1-.23 1.59 5.67 5.67 0 0 0 .82-1.13h-.51l.05-.61h.51v-.46L21 37v.46h.43l-.06.6h-.42a5.12 5.12 0 0 0 .53.76l-.36.46c-.09-.13-.17-.26-.25-.39l-.13 1.52h-.61Zm1.7.11a5.26 5.26 0 0 1-.52.74l-.34-.55a5.77 5.77 0 0 0 1-1.33h-.53l.05-.6h.52v-.46l.64.06v.46l.69.06v.6l-.7-.06a7 7 0 0 0 .73 1.41l-.46.46a6.06 6.06 0 0 1-.37-.72l-.1 1.19h-.62ZM28.3 40a.85.85 0 0 1-.2.6.91.91 0 0 1-.55.07h-.41L27 40h.44a.18.18 0 0 0 .14 0s0-.06 0-.14l.08-.92-.83-.07L26.7 41l-.7-.06.18-2.09-.78-.07-.15 1.77-.7-.06.14-1.56-.43.32-.48-.53a6.14 6.14 0 0 0 1.52-1.3l-1.22-.11.05-.65 1.55.14a3.94 3.94 0 0 0 .26-.66l.73.12a4.17 4.17 0 0 1-.24.6l2.35.2-.06.65-2.65-.22a5.36 5.36 0 0 1-.53.67l.7.06.05-.54.69.06v.54l1.51.13ZM31.84 40.69a.87.87 0 0 1-.19.57 1.07 1.07 0 0 1-.61.07l-.85-.08-.11-.64.76.06c.14 0 .23 0 .26-.06a.47.47 0 0 0 0-.17v-.36l-2-.18v-.62l2.07.18v-.18h.17l.5-.26-1.85-.16.05-.57 3 .26v.49c-.3.17-.61.33-.92.48l1.76.15-.06.61-1.93-.16Zm-.91-3.34-.45.16 1 .08a5.12 5.12 0 0 0-.35-.78l.64-.19a4.29 4.29 0 0 1 .36.79l-.63.18.81.07a7 7 0 0 0 .58-.88l.68.25c-.15.23-.31.46-.49.7l.85.07-.1 1.14-.7-.06.05-.53-3.12-.27v.53l-.7-.06.1-1.13.83.07a4.71 4.71 0 0 0-.4-.65l.65-.22a5.05 5.05 0 0 1 .39.73ZM38.82 42h-.71v-.26l-3-.26v.26l-.71-.06.39-4.57 4.44.39Zm-.54-3-2.87-.25v-.39l1.08.09v-.14l-.89-.08v-.37l.9.08v-.15l-1.19-.1-.26 3.1 3.06.27.27-3.1-1.23-.11V38l.91.08v.37l-.91-.08v.15l1.12.1Zm-1.9 1.34a4.46 4.46 0 0 1-.79.36l-.34-.42a3.71 3.71 0 0 0 1-.39l-.72-.07.08-.9 2.49.22-.1.86.18.13a4.64 4.64 0 0 1-.42.37l.34.22-.44.31a5.31 5.31 0 0 1-.69-.6v.46h-.59Zm1-.72v-.16l-1.26-.11v.17ZM37 40v.25l.25-.17a1.53 1.53 0 0 0 .18.18l.23-.2ZM43.58 39.12a4.69 4.69 0 0 1-1.14 1.67 6.57 6.57 0 0 0 1.78 1.12l-.55.53a6.25 6.25 0 0 1-1.76-1.22 5.93 5.93 0 0 1-1.95.9l-.43-.62a6.41 6.41 0 0 0 1.93-.79 4.39 4.39 0 0 1-.84-1.85l-.86-.07.05-.66 2 .17.06-.69.73.07-.06.69 2 .17-.06.66ZM42 40.3a4 4 0 0 0 .87-1.24l-1.51-.13A3.59 3.59 0 0 0 42 40.3ZM46.18 42.62l-.7-.06.19-2.25a6.21 6.21 0 0 1-.57.58l-.38-.63a6.71 6.71 0 0 0 1.63-2.33l.69.22a11.76 11.76 0 0 1-.56 1.07Zm3.34-1.4a3 3 0 0 1-.3 1.23c-.16.22-.46.3-.91.26l-.58-.05a1.23 1.23 0 0 1-.66-.17c-.1-.1-.13-.32-.09-.67l.32-3.71.71.06-.12 1.48a9.61 9.61 0 0 0 1.44-.77l.28.66a9.08 9.08 0 0 1-1.79.9l-.11 1.25v.25A.38.38 0 0 0 48 42h.26a.48.48 0 0 0 .44-.14.93.93 0 0 0 .14-.42v-.51ZM51.67 42a4.29 4.29 0 0 1-1.09.89l-.58-.42a3.74 3.74 0 0 0 1.09-.82Zm3-.13-1.84-.15-.07.84c0 .27-.09.43-.2.5a.94.94 0 0 1-.56.05l-.57-.05-.14-.62h.72a.29.29 0 0 0 0-.14v-.65l-1.94-.16v-.6h.22l-.4-.47a6.37 6.37 0 0 0 .73-.23 1.92 1.92 0 0 0-.32-.26l.5-.28.35.27.22-.14a4 4 0 0 0-.37-.27l.41-.3.35.24.26-.28-.72-.06a4.34 4.34 0 0 1-.94.61l-.44-.47a3.07 3.07 0 0 0 1.34-1l.69.15-.13.16 1 .09a4.16 4.16 0 0 0 .67 1 3.34 3.34 0 0 0 .41-.45l-.76-.06v-.55l1.49.12-.05.58a6.56 6.56 0 0 1-.72.75 4.39 4.39 0 0 0 1 .59l-.5.54h.21Zm-4-.94 3.83.33a5.87 5.87 0 0 1-.93-.67v.27l-1.92-.16v-.29a4.38 4.38 0 0 1-.97.59Zm2-1.44a5.13 5.13 0 0 1-.72.68l1.3.12a4.31 4.31 0 0 1-.54-.78Zm2 3.35-.62.35a4.7 4.7 0 0 1-1-1.07l.6-.27a4.2 4.2 0 0 0 1.1 1.01Z"/>
</svg>
