<svg version="1.1" id="_x32_" xmlns="http://www.w3.org/2000/svg" x="0px" y="0px"
	 viewBox="0 0 512 512" xml:space="preserve">
<g>
	<path d="M256.496,96.435c26.634,0,48.213-21.596,48.213-48.212C304.709,21.578,283.131,0,256.496,0
		c-26.644,0-48.222,21.578-48.222,48.223C208.274,74.839,229.852,96.435,256.496,96.435z" />
	<path d="M298.273,119.275h-42.272h-42.273c-23.364,0-48.781,25.418-48.781,48.79v162.062
		c0,11.681,9.464,21.155,21.145,21.155c5.751,0,0,0,14.764,0l8.04,138.212c0,12.43,10.086,22.507,22.516,22.507
		c5.246,0,14.917,0,24.589,0c9.671,0,19.343,0,24.588,0c12.43,0,22.516-10.077,22.516-22.507l8.04-138.212
		c14.764,0,9.013,0,14.764,0c11.681,0,21.145-9.474,21.145-21.155V168.065C347.054,144.693,321.636,119.275,298.273,119.275z" />
</g>
</svg>
